<svg width="51" height="50" viewBox="0 0 51 50" fill="none" xmlns="http://www.w3.org/2000/svg">
<path d="M51 25C51 11.1914 39.5848 0 25.5 0C11.4152 0 0 11.1914 0 25C0 38.8086 11.4152 50 25.5 50C25.6494 50 25.7988 50 25.9482 49.9902V30.5371H20.4697V24.2773H25.9482V19.668C25.9482 14.3262 29.2752 11.416 34.1361 11.416C36.467 11.416 38.4691 11.582 39.0469 11.6602V17.2461H35.7C33.0604 17.2461 32.5424 18.4766 32.5424 20.2832V24.2676H38.8676L38.0408 30.5273H32.5424V49.0332C43.2006 46.0352 51 36.416 51 25Z" fill="#219653"/>
</svg>
