<svg width="36" height="36" viewBox="0 0 36 36" fill="none" xmlns="http://www.w3.org/2000/svg">
<path d="M20.6487 10.6841C20.2722 10.6841 19.9668 10.9991 19.9668 11.3872C19.9668 11.7751 20.2722 12.0901 20.6487 12.0901C21.0252 12.0901 21.3306 11.7751 21.3306 11.3872C21.3306 10.9991 21.0252 10.6841 20.6487 10.6841Z" fill="#571818"/>
<path d="M16.5118 24.4168C16.778 24.1418 16.778 23.6969 16.5118 23.422C16.2453 23.1478 15.8136 23.1478 15.5469 23.422C15.2809 23.6969 15.2809 24.1418 15.5469 24.4168C15.8136 24.6909 16.2453 24.6909 16.5118 24.4168Z" fill="#571818"/>
<path d="M8.31382 35.7918C8.57824 36.0664 9.00873 36.0694 9.27662 35.7975L12.5841 32.4401C13.146 31.8611 13.3168 31.0039 13.0697 30.2588L13.7812 29.5518C14.1642 29.1706 14.6685 28.9605 15.2016 28.9605H24.2707C25.8796 28.9605 27.4004 28.3238 28.5532 27.1678C28.6007 27.1202 28.1931 27.6149 34.7403 19.552C35.7113 18.3682 35.5661 16.5907 34.4161 15.589C33.2734 14.5966 31.5616 14.7392 30.5878 15.9026L26.5623 20.1659C26.054 19.5213 25.2788 19.1194 24.4413 19.1194H16.834C15.7516 18.6528 14.603 18.4166 13.4178 18.4166C10.1339 18.4166 7.26492 19.9788 5.72502 22.9111C5.07648 22.7845 4.3925 22.9866 3.90044 23.4936L0.655106 26.8475C0.390149 27.1213 0.389616 27.5644 0.65404 27.8387L8.31382 35.7918ZM13.4176 19.8223C14.4625 19.8223 15.4727 20.039 16.4209 20.4664C16.5072 20.5054 16.6003 20.5254 16.6944 20.5254H24.4413C25.181 20.5254 25.8058 21.147 25.8058 21.9311C25.8058 22.7065 25.1938 23.3371 24.4413 23.3371H18.8753C18.4987 23.3371 18.1932 23.6519 18.1932 24.0399C18.1932 24.4283 18.4987 24.7428 18.8753 24.7428H24.4413C25.946 24.7428 27.17 23.4816 27.17 21.9311C27.17 21.8075 27.1615 21.685 27.1461 21.5636C31.0402 17.4391 31.5893 16.8595 31.6127 16.8307C32.0989 16.2394 32.9621 16.1644 33.5362 16.6632C34.1109 17.1639 34.1837 18.0527 33.6962 18.6473L27.5773 26.1845C26.6838 27.0683 25.5107 27.5548 24.2707 27.5548H15.2016C14.3129 27.5548 13.4717 27.9049 12.8336 28.5402L12.2538 29.1167L6.90933 23.6101C8.15841 21.1956 10.5022 19.8223 13.4176 19.8223ZM4.8659 24.4871C5.09088 24.2553 5.43634 24.2135 5.71062 24.3882C5.81485 24.4536 11.6498 30.4807 11.6858 30.5304C11.8854 30.8075 11.8569 31.2011 11.6231 31.4423L8.80348 34.3045L2.10038 27.3449L4.8659 24.4871Z" fill="#571818"/>
<path d="M11.0981 14.9018H27.4709C28.5995 14.9018 29.5175 13.9559 29.5175 12.793C29.5175 11.0211 29.5175 3.3826 29.5175 2.10846C29.5175 0.945558 28.5995 -0.000366211 27.4709 -0.000366211H11.0981C9.96954 -0.000366211 9.05151 0.945558 9.05151 2.10846V12.793C9.05151 13.9559 9.96954 14.9018 11.0981 14.9018ZM28.153 5.62299H10.416V4.21729H28.153V5.62299ZM27.4709 13.4961H11.0981C10.722 13.4961 10.416 13.1805 10.416 12.793V7.02897H28.153V12.793C28.153 13.1805 27.847 13.4961 27.4709 13.4961ZM11.0981 1.40561H27.4709C27.847 1.40561 28.153 1.72092 28.153 2.10846V2.81131H10.416V2.10846C10.416 1.72092 10.722 1.40561 11.0981 1.40561Z" fill="#571818"/>
<path d="M26.1064 10.6841H23.3777C23.001 10.6841 22.6956 10.9989 22.6956 11.3872C22.6956 11.7753 23.001 12.0901 23.3777 12.0901H26.1064C26.4833 12.0901 26.7888 11.7753 26.7888 11.3872C26.7888 10.9989 26.4833 10.6841 26.1064 10.6841Z" fill="#571818"/>
</svg>
