<svg width="59" height="25" viewBox="0 0 59 25" fill="none" xmlns="http://www.w3.org/2000/svg">
<path d="M24.5217 9.9986C24.5217 9.44628 24.9695 8.99854 25.5218 8.99854H27.4019C27.9543 8.99854 28.402 9.44628 28.402 9.9986C28.402 10.5509 27.9543 10.9987 27.4019 10.9987H25.5218C24.9695 10.9987 24.5217 10.5509 24.5217 9.9986Z" fill="#571818"/>
<path d="M57.6463 6.009L55.2687 5.65908C52.4911 5.25028 49.8673 4.18288 47.3213 2.99945C43.0751 1.01722 38.4665 -0.00563508 33.8046 -0.000345802H32.6598C27.1582 0.00372277 21.7446 1.42652 16.9126 4.13825C14.7303 5.36515 12.2553 5.92298 9.79365 6.37868C7.23612 6.85214 4.76592 7.77213 2.49259 9.10767C1.11798 9.92017 0.269214 11.4276 0.266846 13.0603V18.9977C0.266846 19.5502 0.701099 19.9977 1.2372 19.9977C3.18502 19.9977 4.81295 21.4065 6.30638 22.657C7.8183 23.9229 9.91354 24.3743 11.8867 23.6615C14.8558 22.5892 17.5646 19.9977 20.7215 19.9977H32.1673C37.6653 19.9977 43.5835 25.5296 48.7544 23.6615C50.3109 23.0993 51.5564 21.8827 52.1879 20.324C52.266 20.1311 52.4493 19.9977 52.6575 19.9977C52.7811 19.9977 52.9035 19.9737 53.0184 19.9265L56.1608 18.627C57.5646 18.0542 58.484 16.6537 58.4789 15.0983V6.9989C58.4789 6.50171 58.124 6.0798 57.6463 6.009ZM13.7709 18.7979C13.3418 20.962 11.2917 22.3579 9.19193 21.9157C7.09173 21.4734 5.73725 19.3606 6.16637 17.1961C6.59589 15.032 8.64596 13.636 10.7458 14.0783C12.5527 14.4587 13.8499 16.0971 13.8495 17.998C13.8495 18.2665 13.823 18.5347 13.7709 18.7979ZM31.3132 12.9985C31.3132 15.7596 29.0748 17.998 26.3137 17.998H23.5515C19.2648 17.998 15.6072 13.338 11.4741 12.2009C10.994 12.0688 10.4894 11.9984 9.96885 11.9984C7.07307 11.9984 4.67113 14.1775 4.22264 17.0315C4.13946 17.5608 3.71313 17.998 3.17733 17.998C2.64152 17.998 2.20717 17.5636 2.20717 17.0278V13.0603C2.20835 12.1445 2.68445 11.2986 3.45584 10.8437C6.62194 8.98072 10.2041 8.00019 13.8495 7.99897H26.3137C29.0748 7.99897 31.3132 10.2373 31.3132 12.9985ZM31.3132 4.06537C31.3132 5.13342 30.4474 5.99924 29.3793 5.99924H17.8695C17.8116 5.99924 17.7914 5.92229 17.8419 5.89386C21.3966 3.90291 25.2888 2.65092 29.2976 2.20116C30.3926 2.07831 31.3132 2.9635 31.3132 4.06537ZM33.2535 2.54851C33.2535 2.24524 33.4994 1.99938 33.8026 1.99938C37.0837 1.99562 40.3397 2.53368 43.4483 3.58949C44.306 3.8808 44.5325 4.96031 43.9017 5.61039C43.6605 5.85896 43.3289 5.99924 42.9826 5.99924H35.2534C34.1489 5.99924 33.2535 5.10384 33.2535 3.99931V2.54851ZM50.6386 18.7979C50.2095 20.962 48.1595 22.3579 46.0592 21.9157C43.9594 21.4734 42.605 19.3606 43.0341 17.1961C43.4632 15.032 45.5137 13.636 47.6135 14.0783C49.4204 14.4587 50.7176 16.0971 50.7172 17.998C50.7172 18.2665 50.6908 18.5347 50.6386 18.7979ZM56.5386 8.39061C56.5386 8.72641 56.2663 8.99863 55.9306 8.99863H54.628C54.0756 8.99863 53.6279 9.44637 53.6279 9.99869C53.6279 10.551 54.0756 10.9988 54.628 10.9988H55.0832C55.887 10.9988 56.5386 11.6503 56.5386 12.4541V15.0983C56.5409 15.8351 56.1051 16.4983 55.4403 16.7689L52.9122 17.8153C52.7909 17.8655 52.6486 17.7767 52.6402 17.6457C52.6342 17.5537 52.6323 17.4459 52.6228 17.3458C52.6129 17.2457 52.5936 17.1456 52.5782 17.0459C52.5624 16.9459 52.5509 16.8458 52.5316 16.755C52.5122 16.6639 52.4838 16.563 52.4586 16.4678C52.4333 16.373 52.4139 16.277 52.3847 16.1838C52.3559 16.091 52.3208 16.0019 52.288 15.9108C52.2549 15.8201 52.2249 15.7261 52.1909 15.6358C52.157 15.5458 52.1112 15.4641 52.0705 15.379C52.0298 15.294 51.99 15.2008 51.9446 15.115C51.8988 15.0291 51.8474 14.9559 51.8036 14.8762C51.7602 14.796 51.7069 14.7049 51.6516 14.6231C51.596 14.5409 51.5447 14.4762 51.4914 14.4022C51.4381 14.3281 51.3777 14.241 51.3157 14.1641C51.2537 14.0872 51.1957 14.027 51.1353 13.964C51.0753 13.9013 51.0082 13.8163 50.9414 13.7463C50.8743 13.6763 50.8084 13.621 50.7417 13.5591C50.6746 13.4973 50.6027 13.4241 50.5289 13.359C50.4555 13.2943 50.3805 13.2442 50.307 13.1873C50.2332 13.1303 50.1594 13.0693 50.082 13.016C50.0042 12.9631 49.917 12.9163 49.8337 12.8602C49.75 12.804 49.6821 12.7601 49.6035 12.7173C49.525 12.6742 49.4271 12.6291 49.3379 12.5851C49.2486 12.5412 49.1788 12.5021 49.0963 12.4663C49.0137 12.4301 48.902 12.3923 48.8053 12.3565C48.7082 12.3202 48.645 12.2922 48.5625 12.2653C48.452 12.2303 48.3387 12.2051 48.2258 12.1762C48.152 12.1583 48.0813 12.1343 48.0067 12.1184C47.8875 12.0932 47.7651 12.0794 47.6439 12.0611C47.572 12.0513 47.5033 12.035 47.4315 12.0281C47.2373 12.0082 47.0434 11.9972 46.8397 11.9972C44.9483 11.9991 43.2679 12.9296 42.2047 14.3702C40.9317 16.0949 39.2817 17.9968 37.138 17.9968C34.9929 17.9968 33.2539 16.2578 33.2539 14.1127V12.9977C33.2539 10.2367 35.4921 7.99856 38.253 7.99856H43.9259C44.1833 7.99856 44.43 7.89318 44.6116 7.70562L44.6674 7.64811C46.1344 6.13622 48.4303 5.70898 50.2032 6.84673C50.3177 6.92038 50.4456 6.96879 50.5794 6.98873L56.0191 7.78908C56.3175 7.83298 56.5386 8.089 56.5386 8.39061Z" fill="#571818"/>
</svg>
