<svg width="46" height="32" viewBox="0 0 46 32" fill="none" xmlns="http://www.w3.org/2000/svg">
<path d="M27.2174 6.34882C27.2193 5.56727 26.9995 4.8027 26.5858 4.15191C26.1721 3.50113 25.5832 2.99338 24.8936 2.69295C24.204 2.39252 23.4447 2.31291 22.7118 2.4642C21.979 2.6155 21.3055 2.99089 20.7766 3.54286C20.2477 4.09483 19.8873 4.79856 19.7409 5.56497C19.5945 6.33137 19.6688 7.12598 19.9542 7.84822C20.2397 8.57046 20.7236 9.18784 21.3446 9.62221C21.9656 10.0566 22.6958 10.2884 23.4428 10.2884C24.4423 10.2884 25.4011 9.87372 26.1087 9.13517C26.8163 8.39662 27.215 7.39456 27.2174 6.34882ZM23.4428 9.12474C22.9185 9.12282 22.4065 8.9584 21.9714 8.65223C21.5363 8.34606 21.1977 7.91187 20.9983 7.4045C20.7989 6.89712 20.7477 6.33931 20.8511 5.8015C20.9545 5.26368 21.2079 4.76999 21.5793 4.38275C21.9507 3.99551 22.4235 3.73209 22.9379 3.62576C23.4522 3.51942 23.9852 3.57494 24.4695 3.78531C24.9537 3.99567 25.3675 4.35144 25.6587 4.8077C25.9498 5.26395 26.1052 5.80023 26.1052 6.34882C26.1032 7.08605 25.8217 7.79233 25.3226 8.31273C24.8235 8.83313 24.1475 9.12515 23.4428 9.12474Z" fill="#571818"/>
<path d="M11.1708 16.1065C10.6556 16.1077 10.1523 16.2687 9.72446 16.5692C9.29665 16.8696 8.96353 17.2959 8.7672 17.7943C8.57087 18.2927 8.52013 18.8408 8.62139 19.3694C8.72266 19.8979 8.97139 20.3832 9.33615 20.764C9.70091 21.1447 10.1653 21.4038 10.6708 21.5084C11.1762 21.6131 11.7 21.5588 12.1759 21.3522C12.6518 21.1456 13.0585 20.796 13.3446 20.3477C13.6307 19.8994 13.7834 19.3724 13.7834 18.8333C13.7818 18.1095 13.5058 17.4159 13.016 16.9047C12.5263 16.3935 11.8627 16.1064 11.1708 16.1065ZM11.1708 20.3967C10.8756 20.3954 10.5873 20.3026 10.3424 20.1301C10.0975 19.9575 9.90689 19.7129 9.79473 19.4272C9.68258 19.1414 9.65386 18.8273 9.7122 18.5244C9.77055 18.2216 9.91334 17.9436 10.1225 17.7256C10.3318 17.5076 10.598 17.3594 10.8877 17.2996C11.1774 17.2398 11.4775 17.2711 11.7502 17.3896C12.0229 17.5081 12.2559 17.7085 12.4198 17.9655C12.5837 18.2224 12.6712 18.5244 12.6712 18.8333C12.67 19.2487 12.5114 19.6466 12.2301 19.9398C11.9488 20.233 11.5679 20.3974 11.1708 20.397V20.3967Z" fill="#571818"/>
<path d="M27.6754 21.1762C27.2338 21.1772 26.8025 21.3152 26.4358 21.5726C26.0692 21.83 25.7837 22.1953 25.6154 22.6224C25.4471 23.0495 25.4036 23.5193 25.4903 23.9722C25.5771 24.4252 25.7902 24.8411 26.1028 25.1674C26.4153 25.4937 26.8133 25.7158 27.2465 25.8055C27.6796 25.8953 28.1285 25.8487 28.5363 25.6717C28.9442 25.4946 29.2927 25.1951 29.538 24.8109C29.7832 24.4267 29.914 23.9751 29.914 23.5131C29.9127 22.8928 29.6763 22.2984 29.2566 21.8603C28.8369 21.4222 28.2683 21.1762 27.6754 21.1762ZM27.6754 24.6864C27.4538 24.6854 27.2375 24.6157 27.0537 24.4862C26.87 24.3566 26.727 24.173 26.6429 23.9585C26.5588 23.744 26.5373 23.5083 26.5811 23.281C26.625 23.0538 26.7322 22.8452 26.8892 22.6816C27.0462 22.5181 27.2461 22.4068 27.4635 22.362C27.6809 22.3171 27.9061 22.3407 28.1107 22.4296C28.3153 22.5186 28.4902 22.669 28.6132 22.8618C28.7362 23.0546 28.8019 23.2813 28.8019 23.5131C28.8008 23.8249 28.6817 24.1235 28.4705 24.3434C28.2593 24.5633 27.9734 24.6867 27.6754 24.6863V24.6864Z" fill="#571818"/>
<path d="M39.5673 13.2183C40.0088 13.2172 40.4402 13.0793 40.8068 12.8219C41.1735 12.5645 41.459 12.1991 41.6273 11.772C41.7956 11.3449 41.8391 10.8752 41.7524 10.4222C41.6656 9.96925 41.4525 9.55333 41.1399 9.22703C40.8273 8.90073 40.4293 8.67867 39.9962 8.58893C39.563 8.49918 39.1142 8.54576 38.7063 8.72279C38.2985 8.89982 37.9499 9.19936 37.7047 9.58355C37.4595 9.96774 37.3286 10.4194 37.3286 10.8813C37.3299 11.5016 37.5664 12.096 37.9861 12.5341C38.4057 12.9722 38.9744 13.2183 39.5673 13.2183ZM39.5673 9.70802C39.7888 9.70906 40.0052 9.77875 40.1889 9.9083C40.3727 10.0379 40.5157 10.2215 40.5998 10.4359C40.6839 10.6504 40.7054 10.8862 40.6615 11.1134C40.6177 11.3407 40.5105 11.5493 40.3535 11.7128C40.1964 11.8764 39.9966 11.9876 39.7792 12.0325C39.5618 12.0773 39.3366 12.0538 39.1319 11.9648C38.9273 11.8759 38.7525 11.7255 38.6295 11.5327C38.5064 11.3398 38.4408 11.1132 38.4408 10.8813C38.4418 10.5696 38.561 10.271 38.7721 10.051C38.9833 9.83103 39.2693 9.70769 39.5673 9.70802Z" fill="#571818"/>
<path d="M41.1885 15.4711L42.6552 13.4258C43.2202 12.6541 43.5011 11.6956 43.4469 10.7252C43.3148 8.60781 41.6572 6.94897 39.6731 6.94897C37.689 6.94897 36.0316 8.60781 35.8993 10.7247C35.8706 11.2054 35.9278 11.6874 36.0679 12.1462L26.8957 12.3222L28.3112 10.3472C29.2147 9.11448 29.6644 7.58297 29.5784 6.03214C29.481 4.44574 28.8364 2.95029 27.7645 1.8237C27.2122 1.24543 26.5564 0.786694 25.8346 0.473712C25.1128 0.160729 24.3391 -0.000366211 23.5578 -0.000366211C22.7764 -0.000366211 22.0028 0.160729 21.281 0.473712C20.5592 0.786694 19.9034 1.24543 19.3511 1.8237C18.2793 2.95002 17.6348 4.44511 17.5373 6.03117C17.4428 7.51003 17.8912 9.04049 18.8039 10.3463L20.0284 12.0538L6.99436 12.1437C6.879 12.1445 6.76673 12.1828 6.67311 12.2533C6.57949 12.3238 6.50914 12.4231 6.47182 12.5373L0.360469 31.2296C0.331848 31.3172 0.323614 31.4107 0.336452 31.5022C0.349289 31.5938 0.382826 31.6809 0.434279 31.7562C0.485731 31.8315 0.553613 31.8929 0.632286 31.9352C0.710959 31.9775 0.798152 31.9996 0.886624 31.9996H45.374C45.4612 31.9996 45.5472 31.9781 45.625 31.9369C45.7029 31.8957 45.7703 31.8359 45.822 31.7624C45.8737 31.6888 45.9081 31.6036 45.9224 31.5136C45.9368 31.4236 45.9307 31.3313 45.9047 31.2442L41.1885 15.4711ZM37.0086 10.801C37.091 9.47956 38.1099 8.1126 39.6726 8.1126C41.2353 8.1126 42.2542 9.47985 42.3367 10.8026C42.3731 11.4949 42.1704 12.1779 41.7656 12.7268L39.6726 15.6456L37.5837 12.7327C37.1818 12.1791 36.9785 11.4955 37.009 10.801H37.0086ZM36.6062 13.2992C36.6341 13.3415 36.6619 13.3836 36.6906 13.4253L39.2283 16.9647C39.2801 17.0369 39.3473 17.0956 39.4245 17.136C39.5017 17.1764 39.5869 17.1974 39.6732 17.1974C39.7595 17.1974 39.8447 17.1764 39.9219 17.136C39.9991 17.0956 40.0663 17.0369 40.1181 16.9647L40.3664 16.6185L40.9985 18.7331L32.3763 18.7351L31.7516 13.393L36.6062 13.2992ZM19.698 9.6541C18.9434 8.57455 18.5702 7.31551 18.6475 6.10826C18.7273 4.80314 19.2573 3.57273 20.139 2.6457C20.5879 2.17584 21.121 1.80311 21.7077 1.54881C22.2943 1.29452 22.9231 1.16363 23.5582 1.16363C24.1932 1.16363 24.822 1.29452 25.4087 1.54881C25.9953 1.80311 26.5284 2.17584 26.9773 2.6457C27.8595 3.57312 28.3897 4.80415 28.4695 6.1099C28.5375 7.38263 28.1659 8.63851 27.4224 9.64838L23.5582 15.037L19.698 9.6541ZM1.6646 30.836L4.55349 21.9998L7.84259 21.9893L10.8553 26.1905C10.9071 26.2628 10.9743 26.3214 11.0515 26.3618C11.1287 26.4022 11.2139 26.4233 11.3002 26.4233C11.3865 26.4233 11.4717 26.4022 11.5489 26.3618C11.6261 26.3214 11.6933 26.2628 11.7451 26.1905L14.1455 22.8426L14.1751 30.836H1.6646ZM13.957 21.1669L11.3001 24.8719L8.64725 21.1726C8.12573 20.426 7.86761 19.5582 7.92081 18.7272C8.02517 17.0525 9.31781 15.3204 11.3001 15.3204C13.2824 15.3204 14.575 17.0525 14.6796 18.7288C14.726 19.6059 14.4695 20.4712 13.957 21.1669ZM22.7215 24.7367C22.669 24.7908 22.6273 24.8554 22.5988 24.9265C22.5704 24.9977 22.5557 25.0741 22.5558 25.1512L22.5587 30.836H15.2873L15.2523 21.1984C15.6557 20.4187 15.842 19.5363 15.7899 18.6514C15.6328 16.1311 13.6609 14.1567 11.3007 14.1567C8.94059 14.1567 6.96878 16.1311 6.81169 18.6505C6.76943 19.397 6.89782 20.1434 7.18622 20.8277L4.93497 20.8349L7.39688 13.3046L20.8598 13.2122L23.114 16.3557C23.1658 16.428 23.2329 16.4866 23.3102 16.527C23.3874 16.5674 23.4725 16.5884 23.5589 16.5884C23.6452 16.5884 23.7303 16.5674 23.8075 16.527C23.8848 16.4866 23.9519 16.428 24.0037 16.3557L26.0498 13.5018L30.6337 13.4139L31.3322 19.3871C31.3487 19.5281 31.4139 19.658 31.5156 19.7521C31.6173 19.8463 31.7484 19.8983 31.8842 19.8982L41.3465 19.896L42.7418 24.5628L31.4453 24.5829C31.5441 24.183 31.5812 23.7692 31.5552 23.357C31.4232 21.2394 29.7655 19.5807 27.7814 19.5807C25.7972 19.5807 24.1395 21.2394 24.0075 23.3561C23.9824 23.7695 24.0213 24.1845 24.1228 24.5849L23.1202 24.5693C23.0463 24.5672 22.9728 24.581 22.9043 24.6098C22.8357 24.6386 22.7735 24.6818 22.7215 24.7367ZM29.8742 25.3585L27.7813 28.2773L25.6924 25.3645C25.2904 24.811 25.0868 24.1274 25.1172 23.4329C25.1996 22.1114 26.2186 20.7445 27.7813 20.7445C29.3439 20.7445 30.3629 22.1117 30.4454 23.4346C30.4817 24.1269 30.2789 24.8097 29.8742 25.3586V25.3585ZM23.6709 30.836L23.6682 25.7416L24.6055 25.7561C24.6658 25.8582 24.7301 25.9584 24.7987 26.0567L27.3364 29.5961C27.3882 29.6683 27.4554 29.727 27.5326 29.7674C27.6098 29.8078 27.6949 29.8288 27.7813 29.8288C27.8676 29.8288 27.9527 29.8078 28.03 29.7674C28.1072 29.727 28.1743 29.6683 28.2261 29.5961L30.7635 26.0578C30.836 25.9569 30.9037 25.8535 30.9667 25.7475L43.0895 25.726L44.6173 30.836H23.6709Z" fill="#571818"/>
</svg>
