<svg width="114" height="73" viewBox="0 0 114 73" fill="none" xmlns="http://www.w3.org/2000/svg">
<g filter="url(#filter0_d)">
<g filter="url(#filter1_i)">
<rect x="6" y="6" width="102" height="57" rx="28.5" stroke="#219653" stroke-width="4"/>
</g>
<g filter="url(#filter2_i)">
<path d="M32.1562 43.0469C32.1562 41.6562 31.7969 40.6094 31.0781 39.9062C30.375 39.1875 29.0859 38.4453 27.2109 37.6797C23.7891 36.3828 21.3281 34.8672 19.8281 33.1328C18.3281 31.3828 17.5781 29.3203 17.5781 26.9453C17.5781 24.0703 18.5938 21.7656 20.625 20.0312C22.6719 18.2812 25.2656 17.4062 28.4062 17.4062C30.5 17.4062 32.3672 17.8516 34.0078 18.7422C35.6484 19.6172 36.9062 20.8594 37.7812 22.4688C38.6719 24.0781 39.1172 25.9062 39.1172 27.9531H32.25C32.25 26.3594 31.9062 25.1484 31.2188 24.3203C30.5469 23.4766 29.5703 23.0547 28.2891 23.0547C27.0859 23.0547 26.1484 23.4141 25.4766 24.1328C24.8047 24.8359 24.4688 25.7891 24.4688 26.9922C24.4688 27.9297 24.8438 28.7812 25.5938 29.5469C26.3438 30.2969 27.6719 31.0781 29.5781 31.8906C32.9062 33.0938 35.3203 34.5703 36.8203 36.3203C38.3359 38.0703 39.0938 40.2969 39.0938 43C39.0938 45.9688 38.1484 48.2891 36.2578 49.9609C34.3672 51.6328 31.7969 52.4688 28.5469 52.4688C26.3438 52.4688 24.3359 52.0156 22.5234 51.1094C20.7109 50.2031 19.2891 48.9062 18.2578 47.2188C17.2422 45.5312 16.7344 43.5391 16.7344 41.2422H23.6484C23.6484 43.2109 24.0312 44.6406 24.7969 45.5312C25.5625 46.4219 26.8125 46.8672 28.5469 46.8672C30.9531 46.8672 32.1562 45.5938 32.1562 43.0469ZM65.8594 17.875V41.5C65.8281 45.0469 64.8516 47.7656 62.9297 49.6562C61.0078 51.5312 58.25 52.4688 54.6562 52.4688C51 52.4688 48.2031 51.5156 46.2656 49.6094C44.3438 47.7031 43.3828 44.9453 43.3828 41.3359V17.875H50.3203V41.3594C50.3203 43.2969 50.6328 44.6797 51.2578 45.5078C51.8828 46.3359 53.0156 46.75 54.6562 46.75C56.2969 46.75 57.4219 46.3438 58.0312 45.5312C58.6406 44.7031 58.9531 43.3516 58.9688 41.4766V17.875H65.8594ZM82.1953 42.625L87.9375 17.875H95.625L85.7812 52H78.6094L68.8359 17.875H76.4766L82.1953 42.625Z" fill="#219653"/>
</g>
</g>
<defs>
<filter id="filter0_d" x="0" y="0" width="114" height="74" filterUnits="userSpaceOnUse" color-interpolation-filters="sRGB">
<feFlood flood-opacity="0" result="BackgroundImageFix"/>
<feColorMatrix in="SourceAlpha" type="matrix" values="0 0 0 0 0 0 0 0 0 0 0 0 0 0 0 0 0 0 127 0"/>
<feOffset dy="4"/>
<feGaussianBlur stdDeviation="2"/>
<feColorMatrix type="matrix" values="0 0 0 0 0 0 0 0 0 0 0 0 0 0 0 0 0 0 0.25 0"/>
<feBlend mode="normal" in2="BackgroundImageFix" result="effect1_dropShadow"/>
<feBlend mode="normal" in="SourceGraphic" in2="effect1_dropShadow" result="shape"/>
</filter>
<filter id="filter1_i" x="4" y="4" width="106" height="65" filterUnits="userSpaceOnUse" color-interpolation-filters="sRGB">
<feFlood flood-opacity="0" result="BackgroundImageFix"/>
<feBlend mode="normal" in="SourceGraphic" in2="BackgroundImageFix" result="shape"/>
<feColorMatrix in="SourceAlpha" type="matrix" values="0 0 0 0 0 0 0 0 0 0 0 0 0 0 0 0 0 0 127 0" result="hardAlpha"/>
<feOffset dy="4"/>
<feGaussianBlur stdDeviation="2"/>
<feComposite in2="hardAlpha" operator="arithmetic" k2="-1" k3="1"/>
<feColorMatrix type="matrix" values="0 0 0 0 0 0 0 0 0 0 0 0 0 0 0 0 0 0 0.25 0"/>
<feBlend mode="normal" in2="shape" result="effect1_innerShadow"/>
</filter>
<filter id="filter2_i" x="16.7344" y="17.4062" width="78.8906" height="39.0625" filterUnits="userSpaceOnUse" color-interpolation-filters="sRGB">
<feFlood flood-opacity="0" result="BackgroundImageFix"/>
<feBlend mode="normal" in="SourceGraphic" in2="BackgroundImageFix" result="shape"/>
<feColorMatrix in="SourceAlpha" type="matrix" values="0 0 0 0 0 0 0 0 0 0 0 0 0 0 0 0 0 0 127 0" result="hardAlpha"/>
<feOffset dy="4"/>
<feGaussianBlur stdDeviation="2"/>
<feComposite in2="hardAlpha" operator="arithmetic" k2="-1" k3="1"/>
<feColorMatrix type="matrix" values="0 0 0 0 0 0 0 0 0 0 0 0 0 0 0 0 0 0 0.25 0"/>
<feBlend mode="normal" in2="shape" result="effect1_innerShadow"/>
</filter>
</defs>
</svg>
