<svg width="73" height="61" viewBox="0 0 73 61" fill="none" xmlns="http://www.w3.org/2000/svg">
<path d="M31.9375 41.2556C31.9375 43.7413 30.2266 45.75 28.1233 45.75H12.9392C10.8359 45.75 9.125 43.7413 9.125 41.2556C9.125 36.7612 10.2656 31.5871 14.9696 31.5871C16.3953 32.9487 18.3549 33.7657 20.5312 33.7657C22.7076 33.7657 24.6672 32.9487 26.0929 31.5871C30.7992 31.5871 31.9375 36.7612 31.9375 41.2556ZM27.375 26.1428C27.375 29.7505 24.309 32.6785 20.5312 32.6785C16.7535 32.6785 13.6875 29.7505 13.6875 26.1428C13.6875 22.5351 16.7535 19.6071 20.5312 19.6071C24.309 19.6071 27.375 22.5351 27.375 26.1428ZM63.875 40.3035V42.4821C63.875 43.0943 63.3754 43.5714 62.7344 43.5714H37.6406C36.9996 43.5714 36.5 43.0943 36.5 42.4821V40.3035C36.5 39.6914 36.9996 39.2143 37.6406 39.2143H62.7344C63.3754 39.2143 63.875 39.6914 63.875 40.3035ZM50.1875 31.5893V33.7678C50.1875 34.38 49.6879 34.8571 49.0469 34.8571H37.6406C36.9996 34.8571 36.5 34.38 36.5 33.7678V31.5893C36.5 30.9771 36.9996 30.5 37.6406 30.5H49.0469C49.6879 30.5 50.1875 30.9771 50.1875 31.5893ZM63.875 31.5893V33.7678C63.875 34.38 63.3754 34.8571 62.7344 34.8571H55.8906C55.2496 34.8571 54.75 34.38 54.75 33.7678V31.5893C54.75 30.9771 55.2496 30.5 55.8906 30.5H62.7344C63.3754 30.5 63.875 30.9771 63.875 31.5893ZM63.875 22.875V25.0535C63.875 25.6657 63.3754 26.1428 62.7344 26.1428H37.6406C36.9996 26.1428 36.5 25.6657 36.5 25.0535V22.875C36.5 22.2628 36.9996 21.7857 37.6406 21.7857H62.7344C63.3754 21.7857 63.875 22.2628 63.875 22.875ZM68.4375 51.1964V13.0714H4.5625V51.1964C4.5625 51.7759 5.09631 52.2857 5.70312 52.2857H67.2969C67.9037 52.2857 68.4375 51.7759 68.4375 51.1964ZM73 9.80355V51.1964C73 54.1919 70.4336 56.6428 67.2969 56.6428H5.70312C2.56641 56.6428 0 54.1919 0 51.1964V9.80355C0 6.80801 2.56641 4.35712 5.70312 4.35712H67.2969C70.4336 4.35712 73 6.80801 73 9.80355Z" fill="#571818"/>
</svg>
