<svg width="73" height="61" viewBox="0 0 73 61" fill="none" xmlns="http://www.w3.org/2000/svg">
<path d="M36.5 34.3125C42.5371 34.3125 48.0121 36.8783 51.9778 41.0206L46.8185 46.4096C44.1741 43.6474 40.5241 41.9375 36.5 41.9375C32.4759 41.9375 28.824 43.6474 26.1814 46.4096L21.0222 41.0206C24.9879 36.8783 30.4629 34.3125 36.5 34.3125V34.3125ZM10.6908 30.2293C17.5839 23.0294 26.7508 19.0625 36.5 19.0625C46.2491 19.0625 55.4161 23.0275 62.3091 30.2293L57.148 35.6202C51.6329 29.8595 44.3 26.6875 36.5 26.6875C28.6999 26.6875 21.3671 29.8595 15.8519 35.6202L10.6908 30.2293V30.2293ZM56.3907 8.00816C62.4752 10.696 67.9411 14.5447 72.6313 19.4457L67.4702 24.8365C59.1975 16.1955 48.1982 11.4375 36.4982 11.4375C24.7981 11.4375 13.7988 16.1955 5.52609 24.8365L0.36499 19.4457C5.05706 14.5447 10.5211 10.6979 16.6057 8.00816C22.9074 5.22313 29.5997 3.8125 36.4963 3.8125C43.393 3.8125 50.0853 5.22503 56.387 8.00816H56.3907ZM32.85 53.375C32.85 51.2686 34.4834 49.5625 36.5 49.5625C38.5166 49.5625 40.15 51.2686 40.15 53.375C40.15 55.4814 38.5166 57.1875 36.5 57.1875C34.4834 57.1875 32.85 55.4814 32.85 53.375Z" fill="#571818"/>
</svg>
